<svg width="22" height="20" viewBox="0 0 22 20" fill="none" xmlns="http://www.w3.org/2000/svg">
<path d="M21.1319 14.1788H6.52815L7.2614 12.6689L19.4447 12.6466C19.8566 12.6466 20.2098 12.3491 20.2834 11.9375L21.9706 2.38998C22.0147 2.13958 21.9485 1.88174 21.7866 1.68588C21.7067 1.58949 21.6069 1.51184 21.4942 1.45833C21.3816 1.40482 21.2588 1.37671 21.1343 1.37598L5.63549 1.32391L5.50307 0.694186C5.41969 0.29255 5.06164 0 4.65455 0H0.865678C0.636086 0 0.415897 0.0922051 0.253551 0.256331C0.0912051 0.420458 0 0.643061 0 0.875171C0 1.10728 0.0912051 1.32988 0.253551 1.49401C0.415897 1.65814 0.636086 1.75034 0.865678 1.75034H3.95318L4.53194 4.53204L5.95675 11.5061L4.12239 14.5333C4.02713 14.6633 3.96976 14.8176 3.95675 14.9788C3.94375 15.1401 3.97565 15.3018 4.04882 15.4456C4.19597 15.7407 4.4927 15.9266 4.82131 15.9266H6.36139C6.03306 16.3675 5.85572 16.9045 5.8562 17.4563C5.8562 18.8596 6.98428 20 8.37231 20C9.76034 20 10.8884 18.8596 10.8884 17.4563C10.8884 16.9034 10.7069 16.3654 10.3832 15.9266H14.334C14.0056 16.3675 13.8283 16.9045 13.8288 17.4563C13.8288 18.8596 14.9569 20 16.3449 20C17.7329 20 18.861 18.8596 18.861 17.4563C18.861 16.9034 18.6795 16.3654 18.3558 15.9266H21.1343C21.6101 15.9266 22 15.5349 22 15.0514C21.9986 14.8196 21.9065 14.5977 21.7439 14.4342C21.5812 14.2707 21.3612 14.1789 21.1319 14.1788V14.1788ZM5.99599 3.04946L20.1166 3.09657L18.7335 10.926L7.64151 10.9458L5.99599 3.04946ZM8.37231 18.2397C7.9456 18.2397 7.59737 17.8877 7.59737 17.4563C7.59737 17.0249 7.9456 16.6729 8.37231 16.6729C8.79902 16.6729 9.14725 17.0249 9.14725 17.4563C9.14725 17.6641 9.06561 17.8634 8.92028 18.0103C8.77495 18.1572 8.57784 18.2397 8.37231 18.2397V18.2397ZM16.3449 18.2397C15.9182 18.2397 15.5699 17.8877 15.5699 17.4563C15.5699 17.0249 15.9182 16.6729 16.3449 16.6729C16.7716 16.6729 17.1198 17.0249 17.1198 17.4563C17.1198 17.6641 17.0382 17.8634 16.8929 18.0103C16.7475 18.1572 16.5504 18.2397 16.3449 18.2397V18.2397Z" fill="#96BD42"/>
</svg>
