<svg width="64" height="64" viewBox="0 0 64 64" fill="none" xmlns="http://www.w3.org/2000/svg">
<path d="M61.0631 2H58.2501V2.896C54.3341 3.772 53.7711 7.407 53.5501 8.796C53.4451 9.453 53.2321 10.738 52.9681 12.312H3.98811C2.05011 12.312 1.83311 14.123 2.08611 15.125L7.83211 40.492C8.08411 41.494 9.14511 42.312 10.1851 42.312H53.1291C54.1631 42.312 55.0061 43.153 55.0061 44.187C55.0061 45.221 54.1631 46.062 53.1291 46.062H6.25511C5.75783 46.062 5.28092 46.2595 4.92929 46.6112C4.57766 46.9628 4.38011 47.4397 4.38011 47.937C4.38011 48.4343 4.57766 48.9112 4.92929 49.2628C5.28092 49.6145 5.75783 49.812 6.25511 49.812H8.68511C7.51182 50.4598 6.5337 51.4103 5.85269 52.5646C5.17167 53.7189 4.81268 55.0348 4.81311 56.375H6.68811C6.68811 59.48 9.20811 62 12.3131 62C15.4181 62 17.9381 59.48 17.9381 56.375H19.8131C19.8133 55.0347 19.4542 53.7188 18.773 52.5645C18.0918 51.4102 17.1135 50.4597 15.9401 49.812H42.4341C41.2607 50.4597 40.2824 51.4102 39.6013 52.5645C38.9201 53.7188 38.5609 55.0347 38.5611 56.375H40.4361C40.4639 57.8487 41.0688 59.2527 42.1209 60.2851C43.173 61.3175 44.5881 61.8959 46.0621 61.8959C47.5361 61.8959 48.9513 61.3175 50.0033 60.2851C51.0554 59.2527 51.6603 57.8487 51.6881 56.375H53.5631C53.5632 55.0348 53.2041 53.7191 52.5231 52.5649C51.8421 51.4106 50.8642 50.46 49.6911 49.812H53.1311C54.6227 49.8112 56.053 49.2183 57.1077 48.1636C58.1624 47.1089 58.7553 45.6786 58.7561 44.187C58.756 43.4482 58.6103 42.7166 58.3275 42.0341C58.0446 41.3516 57.6301 40.7314 57.1076 40.2091C56.5851 39.6868 55.9648 39.2725 55.2822 38.9899C54.5995 38.7073 53.8679 38.5619 53.1291 38.562H52.4321L54.8301 23.652C55.4981 19.714 56.9381 11.207 57.2761 9.091C57.4461 8.022 57.6111 7.271 58.2501 6.85V7.624H61.0631C61.3112 7.62321 61.5489 7.52437 61.7244 7.34904C61.9 7.17371 61.9991 6.93609 62.0001 6.688V2.938C61.9996 2.68956 61.9007 2.45144 61.7251 2.27567C61.5496 2.0999 61.3115 2.00079 61.0631 2V2ZM12.3131 59.188C11.5673 59.1872 10.8523 58.8906 10.3249 58.3632C9.79753 57.8358 9.50091 57.1208 9.50011 56.375H15.1251C15.1243 57.1206 14.8278 57.8355 14.3007 58.3629C13.7735 58.8902 13.0587 59.1869 12.3131 59.188V59.188ZM46.0631 59.188C45.3171 59.1875 44.6018 58.891 44.0742 58.3636C43.5467 57.8362 43.2499 57.121 43.2491 56.375H48.8761C48.8748 57.1206 48.578 57.8354 48.0507 58.3626C47.5235 58.8899 46.8088 59.1867 46.0631 59.188V59.188ZM43.7561 16.994C43.7891 16.7398 43.9122 16.506 44.1031 16.3349C44.294 16.1639 44.5399 16.0671 44.7961 16.062H50.7331C51.2491 16.062 51.6081 16.478 51.5271 16.989L50.9391 20.76C50.8611 21.27 50.3721 21.687 49.8551 21.687H44.1921C44.0729 21.6902 43.9543 21.6674 43.8447 21.6204C43.7351 21.5734 43.6369 21.5032 43.557 21.4147C43.4771 21.3261 43.4173 21.2213 43.3818 21.1074C43.3462 20.9935 43.3358 20.8733 43.3511 20.755L43.7561 16.994V16.994ZM42.7471 26.369C42.7807 26.1151 42.904 25.8816 43.0947 25.7107C43.2855 25.5397 43.5311 25.4427 43.7871 25.437H49.2701C49.7871 25.437 50.1451 25.853 50.0671 26.364L49.6241 29.198C49.5451 29.708 49.0571 30.125 48.5401 30.125H43.2831C43.164 30.1278 43.0456 30.1049 42.9361 30.0578C42.8267 30.0106 42.7286 29.9404 42.6488 29.8519C42.569 29.7634 42.5091 29.6588 42.4735 29.545C42.4378 29.4313 42.4271 29.3112 42.4421 29.193L42.7471 26.369V26.369ZM6.86611 20.777L5.91611 16.972C5.79211 16.47 6.11411 16.062 6.63111 16.062H13.6901C14.2081 16.062 14.6751 16.481 14.7301 16.994L15.1341 20.756C15.1491 20.8742 15.1384 20.9941 15.1028 21.1078C15.0672 21.2214 15.0075 21.3261 14.9277 21.4145C14.848 21.503 14.7501 21.5732 14.6408 21.6204C14.5314 21.6676 14.4132 21.6907 14.2941 21.688H8.03311C7.51711 21.688 6.99111 21.277 6.86611 20.777V20.777ZM10.1371 30.125C9.62111 30.125 9.09511 29.715 8.97111 29.215L8.25511 26.348C8.13011 25.846 8.45011 25.438 8.96711 25.438H14.6961C15.2131 25.438 15.6811 25.857 15.7361 26.37L16.0401 29.194C16.0553 29.3122 16.0447 29.4322 16.0092 29.546C15.9736 29.6597 15.9139 29.7644 15.8341 29.8529C15.7544 29.9414 15.6564 30.0116 15.547 30.0588C15.4376 30.1059 15.3192 30.1288 15.2001 30.126H10.1371V30.125ZM16.1061 38.563H12.2411C11.7221 38.563 11.1991 38.153 11.0741 37.653L10.3581 34.786C10.2341 34.284 10.5541 33.876 11.0721 33.876H15.6021C16.1191 33.876 16.5871 34.295 16.6441 34.808L16.9461 37.632C16.9613 37.7501 16.9507 37.8702 16.9152 37.9838C16.8796 38.0975 16.8199 38.2022 16.7401 38.2906C16.6603 38.379 16.5624 38.4492 16.4529 38.4962C16.3435 38.5432 16.2252 38.566 16.1061 38.563V38.563ZM27.5981 37.625C27.5971 37.8738 27.4976 38.1121 27.3215 38.2878C27.1454 38.4635 26.9069 38.5625 26.6581 38.563H21.7671C21.5111 38.5577 21.2654 38.4608 21.0747 38.2897C20.8841 38.1187 20.7611 37.885 20.7281 37.631L20.4241 34.807C20.4086 34.6888 20.4189 34.5687 20.4543 34.4549C20.4896 34.3411 20.5492 34.2363 20.629 34.1478C20.7087 34.0592 20.8067 33.989 20.9161 33.9419C21.0256 33.8948 21.144 33.872 21.2631 33.875H26.6581C26.9071 33.875 27.1459 33.9738 27.3221 34.1496C27.4983 34.3255 27.5976 34.564 27.5981 34.813V37.625V37.625ZM27.5981 29.188C27.5971 29.4368 27.4976 29.6751 27.3215 29.8508C27.1454 30.0265 26.9069 30.1255 26.6581 30.126H20.8601C20.3441 30.126 19.8781 29.707 19.8201 29.194L19.5181 26.37C19.5028 26.2519 19.5132 26.1318 19.5486 26.0181C19.5841 25.9044 19.6437 25.7997 19.7234 25.7111C19.8031 25.6226 19.901 25.5523 20.0103 25.5052C20.1197 25.4581 20.238 25.4351 20.3571 25.438H26.6581C26.9071 25.438 27.1459 25.5368 27.3221 25.7126C27.4983 25.8885 27.5976 26.127 27.5981 26.376V29.188V29.188ZM27.5981 20.75C27.5971 20.9988 27.4976 21.2371 27.3215 21.4128C27.1454 21.5885 26.9069 21.6875 26.6581 21.688H19.9561C19.6999 21.6829 19.454 21.5861 19.2631 21.4151C19.0722 21.244 18.9491 21.0102 18.9161 20.756L18.5121 16.994C18.4969 16.8758 18.5075 16.7558 18.5431 16.642C18.5786 16.5283 18.6383 16.4236 18.7181 16.3351C18.7978 16.2466 18.8958 16.1764 19.0052 16.1292C19.1147 16.0821 19.233 16.0592 19.3521 16.062H26.6591C26.9081 16.062 27.1469 16.1608 27.3231 16.3366C27.4993 16.5125 27.5986 16.751 27.5991 17V20.75H27.5981ZM37.7571 37.631C37.7239 37.8851 37.6007 38.1188 37.4099 38.2898C37.2191 38.4608 36.9733 38.5577 36.7171 38.563H32.2971C32.0484 38.5625 31.81 38.4635 31.6341 38.2877C31.4581 38.112 31.3589 37.8737 31.3581 37.625V34.812C31.3586 34.5632 31.4578 34.3248 31.6338 34.149C31.8098 33.9731 32.0483 33.8743 32.2971 33.874H37.2211C37.7371 33.874 38.1171 34.293 38.0611 34.806L37.7571 37.631ZM38.6631 29.193C38.6299 29.4471 38.5067 29.6808 38.3159 29.8518C38.1251 30.0228 37.8793 30.1197 37.6231 30.125H32.2971C32.0484 30.1245 31.81 30.0255 31.6341 29.8497C31.4581 29.674 31.3589 29.4357 31.3581 29.187V26.374C31.3586 26.1252 31.4578 25.8868 31.6338 25.711C31.8098 25.5351 32.0483 25.4363 32.2971 25.436H38.1271C38.6441 25.436 39.0231 25.855 38.9661 26.368L38.6631 29.193ZM39.5691 20.756C39.5359 21.0101 39.4127 21.2438 39.2219 21.4148C39.0311 21.5858 38.7853 21.6827 38.5291 21.688H32.2971C32.0484 21.6875 31.81 21.5885 31.6341 21.4127C31.4581 21.237 31.3589 20.9987 31.3581 20.75V17C31.3586 16.7512 31.4578 16.5128 31.6338 16.337C31.8098 16.1611 32.0483 16.0623 32.2971 16.062H39.1341C39.6511 16.062 40.0301 16.481 39.9751 16.994L39.5691 20.756V20.756ZM46.8011 38.563V38.556L46.7931 38.563H42.3771C42.3481 38.563 42.3231 38.549 42.2941 38.545C42.2891 38.511 42.2891 38.477 42.2831 38.441L42.2391 38.533C42.2513 38.5362 42.2637 38.5389 42.2761 38.541C41.8151 38.488 41.4851 38.107 41.5381 37.631L41.8401 34.807C41.8737 34.5531 41.997 34.3196 42.1877 34.1487C42.3785 33.9777 42.6241 33.8807 42.8801 33.875H47.9561C48.4731 33.875 48.8291 34.291 48.7511 34.802L48.3081 37.636C48.2311 38.146 47.7431 38.563 47.2261 38.563H46.8011" fill="black"/>
</svg>
